<svg xmlns="http://www.w3.org/2000/svg"><symbol viewBox="0 0 44 44" id="facebook"><path d="M25.33 15.32h1.83v-3.18c-.32-.04-1.4-.14-2.66-.14-2.64 0-4.44 1.66-4.44 4.7v2.8h-2.9v3.55h2.9V32h3.56v-8.94h2.79l.44-3.56h-3.23v-2.45c0-1.03.28-1.73 1.71-1.73z"/></symbol><symbol viewBox="0 0 44 44" id="instagram"><path d="M31.98 17.88a7.3 7.3 0 00-.46-2.43 4.88 4.88 0 00-1.16-1.77c-.5-.5-1.1-.9-1.77-1.15a7.33 7.33 0 00-2.43-.47 68.26 68.26 0 00-4.12-.06c-2.72 0-3.06.01-4.12.06-1.07.05-1.8.22-2.43.46-.67.26-1.27.65-1.77 1.16-.51.5-.9 1.1-1.16 1.77a7.33 7.33 0 00-.46 2.43 68.3 68.3 0 00-.06 4.12c0 2.72 0 3.06.05 4.12a7.3 7.3 0 00.47 2.43c.25.67.65 1.27 1.16 1.77.5.51 1.1.9 1.77 1.16.63.24 1.36.41 2.42.46 1.07.05 1.4.06 4.12.06s3.06-.01 4.13-.06a7.3 7.3 0 002.42-.46 5.12 5.12 0 002.93-2.93c.24-.64.42-1.36.46-2.43.05-1.06.06-1.4.06-4.12 0-2.71 0-3.05-.05-4.12zm-1.8 8.17c-.04.97-.2 1.5-.34 1.85a3.32 3.32 0 01-1.9 1.9c-.35.14-.89.3-1.86.34-1.05.05-1.37.06-4.04.06a70.3 70.3 0 01-4.04-.06c-.98-.04-1.5-.2-1.85-.34a3.08 3.08 0 01-1.15-.75 3.1 3.1 0 01-.75-1.14 5.5 5.5 0 01-.34-1.86 70.39 70.39 0 01-.06-4.04c0-2.67.01-2.99.06-4.04.04-.98.2-1.5.34-1.86.16-.43.41-.82.75-1.14a3.1 3.1 0 011.15-.75c.35-.14.88-.3 1.86-.34 1.05-.05 1.37-.06 4.03-.06 2.68 0 3 0 4.04.06.98.04 1.5.2 1.86.34.43.16.83.41 1.15.75.33.32.59.71.75 1.14.13.36.3.89.34 1.86.05 1.05.06 1.37.06 4.04s-.01 2.98-.06 4.04z"/><path d="M22.04 16.86a5.14 5.14 0 100 10.28 5.14 5.14 0 000-10.28zm0 8.47a3.33 3.33 0 110-6.66 3.33 3.33 0 010 6.66zM28.58 16.66a1.2 1.2 0 11-2.4 0 1.2 1.2 0 012.4 0z"/></symbol><symbol viewBox="0 0 44 44" id="linkedin"><path d="M32 32v-7.34c0-3.58-.77-6.35-4.97-6.35a4.35 4.35 0 00-3.92 2.16h-.06v-1.82h-3.98V32h4.15v-6.61c0-1.74.33-3.43 2.48-3.43 2.13 0 2.16 1.99 2.16 3.54V32H32zM12.33 18.65h4.15V32h-4.15V18.65zM14.4 12a2.4 2.4 0 00-2.4 2.4 2.42 2.42 0 002.4 2.43c1.33 0 2.4-1.1 2.4-2.43a2.4 2.4 0 00-2.4-2.4z"/></symbol><symbol viewBox="0 0 44 44" id="twitter"><path d="M32 15.8c-.74.32-1.54.54-2.36.65.85-.51 1.5-1.3 1.8-2.27-.8.47-1.67.8-2.6 1a4.1 4.1 0 00-7 3.73 11.6 11.6 0 01-8.45-4.29 4.13 4.13 0 001.26 5.48c-.66-.01-1.3-.2-1.85-.5v.04c0 2 1.42 3.65 3.29 4.03a4.09 4.09 0 01-1.86.07 4.14 4.14 0 003.84 2.85A8.24 8.24 0 0112 28.3a11.54 11.54 0 006.29 1.84c7.55 0 11.67-6.25 11.67-11.67 0-.18 0-.36-.02-.53.82-.58 1.5-1.3 2.06-2.13z"/></symbol><symbol viewBox="0 0 16 11" id="mail"><path d="M14.5 0h-13C.67 0 0 .6 0 1.36V9.5c0 .74.67 1.35 1.5 1.35h13c.83 0 1.5-.6 1.5-1.35V1.36C16 .6 15.33 0 14.5 0zm0 .9c.07 0 .13.02.2.04L8 6.18 1.3.94A.54.54 0 011.5.9h13zm0 9.05h-13c-.28 0-.5-.2-.5-.45V1.9l6.67 5.22a.53.53 0 00.66 0L15 1.9v7.6c0 .26-.22.46-.5.46z"/></symbol><symbol viewBox="0 0 10 15" id="phone"><path d="M8.5 0h-7C.67 0 0 .6 0 1.36V13.1c0 .75.67 1.36 1.5 1.36h7c.83 0 1.5-.6 1.5-1.36V1.36C10 .6 9.33 0 8.5 0zm-7 .9h7c.28 0 .5.2.5.46v9.5H1v-9.5c0-.25.22-.46.5-.46zm7 12.67h-7c-.28 0-.5-.2-.5-.46v-1.35h8v1.35c0 .25-.22.46-.5.46z"/></symbol><symbol viewBox="0 0 24 24" id="plane"><path d="M24 0L0 13.5l7.67 2.84L19.5 5.25l-9 12.14V24l4.3-5.02L20.25 21 24 0z"/></symbol><symbol viewBox="0 0 45 48" id="clientI"><path d="M6 0l7.3 6.7h20.4v18.7l7.3 6.7V0H6z"/><path d="M0 6.42V37.6h34V25.2L13.52 6.44 0 6.42zm27.52 26.62H5.38V12.07h1.57v19.55h20.57v1.42zM9.8 43.49l.8-1.69h.7l-1.2 2.25v1.3h-.62v-1.3l-1.2-2.25h.7l.81 1.69zm3.5 1.04h-1.38l-.28.83h-.65l1.35-3.56h.55l1.35 3.56h-.65l-.29-.83zm-1.2-.5h1.03l-.52-1.47-.51 1.47zm3.64.37a.8.8 0 01.13-.45c.09-.14.27-.3.53-.5a2.27 2.27 0 01-.3-.44.88.88 0 01-.07-.35c0-.28.08-.5.25-.66.17-.17.4-.25.69-.25a.9.9 0 01.63.23c.17.15.25.34.25.57 0 .14-.04.28-.11.4-.08.13-.2.25-.37.38l-.24.17.68.81c.1-.2.15-.4.15-.65h.52c0 .44-.1.8-.31 1.08l.52.62H18l-.2-.24c-.25.19-.55.29-.9.29-.36 0-.64-.1-.85-.28a.93.93 0 01-.31-.73zm1.17.53a.9.9 0 00.56-.2l-.77-.91-.08.05c-.2.15-.3.32-.3.5 0 .17.06.3.17.4.1.11.25.16.42.16zm-.32-2.29c0 .14.08.31.25.52l.27-.19.07-.06c.1-.09.16-.2.16-.34 0-.1-.04-.18-.11-.24a.37.37 0 00-.27-.1c-.11 0-.2.04-.27.12a.43.43 0 00-.1.3zm6.45 1.56c-.03.38-.17.67-.42.89-.24.2-.57.32-.97.32a1.4 1.4 0 01-.75-.2 1.33 1.33 0 01-.5-.58 2.06 2.06 0 01-.18-.86v-.33c0-.34.06-.63.18-.89a1.35 1.35 0 011.28-.8c.39 0 .7.1.95.32.23.22.37.52.41.9h-.61c-.03-.25-.1-.43-.23-.55-.12-.11-.3-.17-.52-.17-.27 0-.48.1-.62.3-.15.2-.22.48-.22.86v.32c0 .38.07.67.2.87.14.2.34.3.6.3.25 0 .43-.05.56-.16.12-.1.2-.29.23-.54h.61zm3.4-.53c0 .35-.07.66-.19.92s-.29.46-.51.6c-.23.15-.48.22-.78.22-.28 0-.54-.07-.77-.21a1.4 1.4 0 01-.52-.6 2.12 2.12 0 01-.19-.9v-.2c0-.36.07-.66.19-.93.12-.26.3-.46.52-.6.22-.15.48-.22.77-.22a1.36 1.36 0 011.29.81c.12.26.18.57.18.91v.2zm-.62-.18c0-.4-.08-.7-.23-.9a.73.73 0 00-.63-.32c-.27 0-.48.1-.63.31-.15.2-.22.5-.23.89v.2c0 .4.08.7.23.9.15.22.36.33.63.33.28 0 .49-.1.63-.31.15-.21.23-.52.23-.92v-.18z"/></symbol><symbol viewBox="0 0 40 52" id="clientII"><path d="M16.98 2.93h.13c.26 0 .53.03.8.05 1.2.09 2.38.27 3.54.54V.65A21.09 21.09 0 0016.32 0h-.43c-2.47 0-4.94.33-7.33.95A29.73 29.73 0 00.77 4.1v28.4a32.36 32.36 0 0113.65-3.85h.08c.35-.02.7-.03 1.07-.03v-2.9a34.33 34.33 0 00-10.91 1.9l-1.01.34V5.83l.43-.2A28.28 28.28 0 0115.89 2.9h.46l.63.02z"/><path d="M24.11 5.93a25.91 25.91 0 01-5.56-.6v28.06c1.82.45 3.7.67 5.57.66 2.47-.01 4.94-.33 7.33-.94a29.81 29.81 0 007.8-3.17V2.05a31.78 31.78 0 01-7.43 2.9c-2.52.64-5.1.97-7.7.98zm11.23.49l1-.34v22.15l-.43.2a27.76 27.76 0 01-13.76 2.64l-.7-.06V8.23l.81.05a34.26 34.26 0 0013.07-1.86zM2.74 42.21a1.5 1.5 0 00-1.13-.45c-.22 0-.44.04-.65.12a1.5 1.5 0 00-.95 1.47v3.8c0 .26.04.53.15.77.1.2.22.37.38.51.15.13.33.22.52.27.19.05.38.08.57.08a1.6 1.6 0 001.57-1.6v-.42h-1v.33c.01.12 0 .24-.05.34a.6.6 0 01-.14.22.7.7 0 01-.41.14.5.5 0 01-.47-.2.9.9 0 01-.14-.51v-3.54c0-.2.04-.39.13-.56a.5.5 0 01.48-.23.53.53 0 01.44.21.8.8 0 01.17.5v.34h.98v-.39a1.79 1.79 0 00-.45-1.2zM8.63 42.17a1.77 1.77 0 00-1.72-.31c-.2.07-.37.17-.52.3-.17.16-.3.34-.39.54-.1.23-.15.48-.14.74v3.63c-.01.26.04.51.14.75.09.2.22.37.39.5.15.15.32.26.52.33a1.74 1.74 0 001.18 0 1.55 1.55 0 001.05-1.57v-3.64a1.64 1.64 0 00-.52-1.27zm-.46 4.9a.65.65 0 01-.2.53.73.73 0 01-.93 0 .65.65 0 01-.2-.53v-3.63a.65.65 0 01.2-.53.73.73 0 01.93 0 .65.65 0 01.2.53v3.63zM16.37 48.7V41.8h-.96l-1.25 3.65h-.02l-1.26-3.65h-.94v6.89h.98v-4.2h.02l.96 2.97h.5l.97-2.96h.01v4.19h.99zM21.96 42.3c-.15-.18-.34-.3-.56-.38a2.18 2.18 0 00-.71-.1h-1.46v6.88h.98V46h.5c.31.02.61-.04.89-.18a1.65 1.65 0 00.76-1.13 4.9 4.9 0 00-.04-1.76 1.47 1.47 0 00-.36-.64zm-.5 2.1c-.01.12-.04.24-.1.35-.06.1-.14.2-.25.24a1 1 0 01-.46.1h-.45v-2.35h.5c.16 0 .3.02.45.09.1.05.18.14.23.25a1 1 0 01.08.38V44.4zM26.6 41.81h-.8L24.3 48.7h.98l.29-1.48h1.33l.3 1.48h.97l-1.55-6.89zm-.9 4.47l.49-2.5h.01l.48 2.5h-.98zM32.95 45.96h-.02l-1.48-4.15h-.94v6.89h.98v-4.14h.02L33 48.7h.92V41.8h-.98v4.15zM38.95 41.81l-.8 2.74h-.01l-.8-2.74h-1.03l1.35 3.98v2.9h.98v-2.9l1.35-3.98h-1.04zM0 50.64h.47v1.33H.8v-1.33h.47v-.27H0v.27zM3.98 50.37l-.62 1.6h.34l.13-.36h.64l.13.36h.35l-.63-1.6h-.34zm-.05.97l.21-.6.22.6h-.43zM7.9 51.38h.38v.2a.61.61 0 01-.38.14.4.4 0 01-.34-.15.67.67 0 01-.12-.42c0-.35.15-.53.46-.53a.34.34 0 01.36.25l.32-.06c-.07-.31-.3-.47-.68-.47a.8.8 0 00-.56.2.78.78 0 00-.23.62c0 .22.06.44.2.6a.78.78 0 00.61.24c.25 0 .5-.09.68-.26v-.63h-.7v.27zM11.92 50.37h-.32v1.6h1.12v-.27h-.8v-1.33zM15.32 50.37h-.33v1.6h.33v-1.6zM18.64 51.44l-.66-1.07h-.31v1.6h.3v-1.04l.64 1.04h.32v-1.6h-.3v1.07zM21.64 51.27h.8V51h-.8v-.36h.85v-.27h-1.18v1.6h1.22v-.27h-.9v-.43zM28.91 51h-.63v-.63h-.32v1.6h.32v-.7h.63v.7h.32v-1.6h-.32V51zM31.93 51.27h.8V51h-.8v-.36h.86v-.27h-1.18v1.6h1.21v-.27h-.89v-.43zM36.02 51.27c.28-.05.42-.2.42-.45a.38.38 0 00-.15-.35.9.9 0 00-.47-.1h-.68v1.6h.32v-.67h.06c.07 0 .14.01.2.04.05.03.1.07.12.12l.35.5h.38l-.2-.3c-.08-.16-.2-.3-.35-.4zm-.32-.22h-.24v-.4h.25c.11-.01.23 0 .33.03a.2.2 0 01-.01.33.91.91 0 01-.33.04zM39.1 51.27h.8V51h-.8v-.36h.87v-.27h-1.18v1.6H40v-.27h-.9v-.43z"/></symbol><symbol viewBox="0 0 41 42" id="clientIII"><path d="M6.35 40.5h.04l.04.03.2.2c-.16.17-.36.3-.58.4-.26.1-.54.15-.82.14-.26 0-.53-.04-.77-.13a1.68 1.68 0 01-.96-.95 2.04 2.04 0 01.01-1.5 1.73 1.73 0 011.02-.95 2.3 2.3 0 011.53-.01c.2.08.4.2.56.33l-.18.23a.17.17 0 01-.04.04.11.11 0 01-.07.01.16.16 0 01-.07-.02l-.1-.06-.13-.08a1.42 1.42 0 00-.7-.15c-.2 0-.4.03-.58.1a1.3 1.3 0 00-.45.28 1.3 1.3 0 00-.29.44c-.07.2-.1.4-.1.6 0 .2.03.4.1.6.07.16.16.3.29.44.12.12.26.21.42.27.17.07.35.1.53.1.11 0 .21 0 .32-.02a1.19 1.19 0 00.68-.3.16.16 0 01.1-.05zM12.29 39.44c0 .25-.05.5-.14.74a1.6 1.6 0 01-.39.57c-.17.17-.38.3-.6.38-.51.18-1.07.18-1.57 0a1.68 1.68 0 01-1-.96c-.18-.47-.18-1 0-1.48.1-.21.22-.4.4-.58.17-.16.37-.28.6-.36.5-.18 1.06-.18 1.56 0a1.7 1.7 0 011 .95c.1.24.14.49.14.74zm-.54 0c0-.2-.03-.4-.1-.6a1.21 1.21 0 00-.71-.72 1.7 1.7 0 00-1.14 0 1.21 1.21 0 00-.71.73c-.13.39-.13.8 0 1.19a1.2 1.2 0 00.71.72c.37.12.77.12 1.14 0 .16-.06.31-.16.43-.28.13-.13.22-.28.28-.44.07-.2.1-.4.1-.6zM16.34 40.07l.05.13.06-.13.07-.14 1.32-2.2c.02-.04.04-.06.07-.07a.33.33 0 01.1-.01h.4v3.59h-.46V38.6v-.11-.13l-1.33 2.24a.2.2 0 01-.07.08.22.22 0 01-.12.03h-.07a.22.22 0 01-.11-.03.2.2 0 01-.08-.08l-1.36-2.25v2.88h-.45v-3.58h.4l.1.01c.03.01.06.04.07.07l1.34 2.2.07.14zM21.29 39.89v1.34h-.52v-3.58h1.15c.22 0 .43.02.64.08.17.04.32.12.45.22.12.1.2.22.26.35.06.15.1.3.09.46 0 .16-.03.31-.1.46a.98.98 0 01-.28.36c-.13.1-.28.18-.45.23-.2.06-.41.1-.62.09l-.62-.01zm0-.39h.62c.13 0 .27-.01.4-.05.1-.04.2-.09.29-.16a.63.63 0 00.17-.23c.04-.1.06-.2.06-.3 0-.1 0-.2-.05-.3a.69.69 0 00-.18-.24c-.2-.14-.44-.21-.69-.2h-.62v1.48zM28.2 41.24h-.4a.18.18 0 01-.12-.04.22.22 0 01-.07-.08l-.35-.87h-1.75l-.36.87a.2.2 0 01-.07.08.18.18 0 01-.11.04h-.41l1.54-3.6h.54l1.56 3.6zm-2.55-1.34h1.46l-.62-1.46a2.47 2.47 0 01-.11-.33l-.06.18-.06.16-.6 1.45zM30.42 37.66l.08.07 2.25 2.7v-.12-2.66h.46v3.59h-.26c-.03 0-.07-.01-.1-.03a.28.28 0 01-.08-.06l-2.25-2.7v2.79h-.46v-3.6h.27l.1.02zM37 39.8v1.43h-.51v-1.42l-1.42-2.16h.46c.04 0 .08 0 .1.03a.3.3 0 01.08.08l.89 1.4a2.23 2.23 0 01.15.31l.07-.15.09-.17.87-1.4a.36.36 0 01.07-.08.17.17 0 01.11-.03h.47L37 39.8zM16.09 31.63l.68.06a18.98 18.98 0 008.44-6.74 16.84 16.84 0 003-9.93l-3.83-3.53c.78 3.74.41 7.6-1.05 11.16a20.72 20.72 0 01-7.24 8.98z"/><path d="M14.72 31.46l.1.02c3.5-2.3 6.16-5.53 7.65-9.25a18.38 18.38 0 00.7-11.61l-5.44-5.03a22.7 22.7 0 012.56 13.34 23.36 23.36 0 01-5.57 12.53zM33.2 19.17a18.15 18.15 0 01-6.41 9.91c-.95.76-1.97 1.44-3.05 2.02a18.38 18.38 0 007.08-3.7 16.58 16.58 0 004.59-6.2l-2.21-2.03z"/><path d="M32.33 18.6l-3.15-2.9a17.5 17.5 0 01-2.95 9.37 19.52 19.52 0 01-7.7 6.69h.02c.7 0 1.4-.04 2.1-.12a19.35 19.35 0 007.62-5.17 17.33 17.33 0 004.06-7.87zM15.18 3.47L11.42 0a17.7 17.7 0 00-8.28 6.04A15.62 15.62 0 000 15.33a15.7 15.7 0 003.8 10.12 18.06 18.06 0 009.73 5.82 22.54 22.54 0 005.75-13.65c.3-5-1.14-9.96-4.1-14.15zM41 18.07a15.86 15.86 0 00-5.23-11.6 18.92 18.92 0 00-18.94-3.73l22.98 21.2A15.15 15.15 0 0041 18.08z"/></symbol><symbol viewBox="0 0 82 41" id="clientIV"><path d="M12.77 12.43c-2.33 0-4.22 1.73-4.22 3.87s1.89 3.87 4.21 3.87c2.34 0 4.22-1.73 4.22-3.87s-1.88-3.87-4.21-3.87zM43.9 11.2c-.02-2.97-1.3-5.82-3.59-7.91A12.81 12.81 0 0031.69 0c-3.24 0-6.34 1.19-8.63 3.28a10.77 10.77 0 00-3.58 7.91v16.36s24.4-2.49 24.41-16.35zM0 32.92c0 2.07.9 4.05 2.5 5.5a8.92 8.92 0 006 2.3c2.24-.01 4.4-.83 5.99-2.3a7.5 7.5 0 002.5-5.5V21.55S0 23.28 0 32.92zm8.5 2.04c-.45 0-.88-.12-1.24-.34a2.09 2.09 0 01-.82-.92 1.88 1.88 0 01-.13-1.17 2 2 0 01.6-1.05 2.41 2.41 0 012.42-.44c.42.15.77.42 1.01.75a1.92 1.92 0 01-.27 2.58 2.4 2.4 0 01-1.58.6zM25.74 33.83h-1.69v1.74h-.88v-4.26h2.78v.71h-1.9v1.1h1.7v.71zm4.23-.3c0 .43-.08.8-.23 1.11a1.67 1.67 0 01-1.59 1 1.7 1.7 0 01-1.6-.98 2.51 2.51 0 01-.22-1.1v-.21c0-.42.08-.79.23-1.1a1.7 1.7 0 011.59-1c.35 0 .67.09.95.26.27.17.49.41.64.73.15.32.23.69.23 1.1v.2zm-.9-.19c0-.44-.08-.78-.24-1.02a.78.78 0 00-.68-.34c-.3 0-.52.11-.68.34-.16.23-.25.57-.25 1.01v.2c0 .44.08.78.24 1.02.16.24.4.36.7.36.29 0 .52-.11.67-.34.16-.24.24-.57.24-1.02v-.2zm3.75 1.11c0-.16-.06-.29-.18-.38a2.25 2.25 0 00-.63-.28c-.3-.1-.55-.2-.73-.3-.48-.25-.72-.6-.72-1.05 0-.23.06-.43.19-.61s.32-.33.56-.43c.24-.1.52-.15.82-.15.3 0 .58.06.81.17a1.22 1.22 0 01.75 1.15h-.87c0-.2-.06-.35-.19-.46a.75.75 0 00-.51-.16.8.8 0 00-.5.14.43.43 0 00-.18.35c0 .14.07.26.2.35.14.1.35.19.62.27.5.15.87.33 1.1.56.22.22.34.5.34.83 0 .37-.14.66-.42.87-.28.2-.66.31-1.13.31a2.2 2.2 0 01-.9-.18 1.27 1.27 0 01-.83-1.22h.89c0 .47.28.7.84.7.21 0 .37-.03.49-.12.12-.08.18-.2.18-.36zm4.69-2.43H36.2v3.55h-.88v-3.55h-1.29v-.71h3.48v.71zm3.07 1.7h-1.7v1.15h1.99v.7H38v-4.26h2.85v.71H38.9v1.02h1.69v.69zm2.38.3h-.7v1.55h-.88v-4.26h1.59c.5 0 .9.11 1.17.34.27.22.4.54.4.95 0 .29-.06.53-.18.73-.13.19-.32.34-.58.46l.93 1.74v.04h-.95l-.8-1.56zm-.7-.72h.71c.22 0 .4-.06.52-.17a.6.6 0 00.18-.46c0-.2-.06-.36-.18-.48-.1-.11-.28-.17-.52-.17h-.7v1.28zm5.33.77v1.5h-.88v-4.26h1.67c.32 0 .6.06.84.17.24.12.43.29.56.5.13.22.2.46.2.74 0 .42-.15.75-.43.99-.29.24-.68.36-1.19.36h-.77zm0-.71h.79c.23 0 .4-.06.53-.17.12-.1.18-.26.18-.46a.7.7 0 00-.18-.51.69.69 0 00-.51-.2h-.81v1.34zm5.56.37h-1.69v1.14h1.98v.7h-2.86v-4.26h2.86v.71h-1.98v1.02h1.7v.69zm4.08-1.71h-1.3v3.55h-.89v-3.55h-1.29v-.71h3.48v.71zm3.07 1.7H58.6v1.15h1.98v.7h-2.86v-4.26h2.86v.71H58.6v1.02h1.69v.69zm2.39.3h-.7v1.55h-.88v-4.26h1.58c.5 0 .9.11 1.17.34.27.22.4.54.4.95 0 .29-.05.53-.18.73-.13.19-.32.34-.57.46l.92 1.74v.04h-.94l-.8-1.56zm-.7-.72h.7c.23 0 .4-.06.52-.17a.6.6 0 00.18-.46c0-.2-.06-.36-.17-.48-.12-.11-.3-.17-.53-.17H62v1.28zm5.16 1.15c0-.16-.06-.29-.17-.38a2.25 2.25 0 00-.64-.28c-.3-.1-.54-.2-.72-.3-.48-.25-.73-.6-.73-1.05 0-.23.07-.43.2-.61s.31-.33.56-.43c.24-.1.51-.15.82-.15.3 0 .57.06.81.17a1.22 1.22 0 01.75 1.15h-.88c0-.2-.06-.35-.18-.46a.75.75 0 00-.52-.16.8.8 0 00-.5.14.43.43 0 00-.18.35c0 .14.07.26.21.35.14.1.35.19.62.27.5.15.86.33 1.1.56.22.22.33.5.33.83 0 .37-.14.66-.42.87-.27.2-.65.31-1.12.31a2.2 2.2 0 01-.9-.18 1.27 1.27 0 01-.83-1.22h.88c0 .47.28.7.85.7.2 0 .37-.03.49-.12.11-.08.17-.2.17-.36z"/></symbol><symbol viewBox="0 0 59 47" id="clientV"><path d="M4.49 39.28c.23.28.35.64.34 1a1.6 1.6 0 01-.53 1.28c-.45.34-1 .5-1.56.47H0v-6.4h2.68c.53-.04 1.06.11 1.49.42a1.46 1.46 0 01.52 1.2c.02.35-.1.7-.31.98-.21.25-.5.43-.82.5.37.07.7.26.93.55zm-3.22-.97h1.15c.26.02.52-.06.73-.21a.76.76 0 00.25-.63.79.79 0 00-.25-.62 1.1 1.1 0 00-.75-.22H1.27v1.68zm2 2.46a.8.8 0 00.26-.65.81.81 0 00-.27-.66c-.23-.17-.5-.25-.78-.23h-1.2v1.76h1.21c.28.02.55-.06.77-.22zM9.97 42.03l-1.49-2.5h-.56v2.5H6.63v-6.4h2.44c.6-.05 1.21.15 1.69.54a2.05 2.05 0 01.18 2.65c-.3.35-.71.58-1.16.65l1.59 2.56h-1.4zm-2.05-3.38h1.05c.73 0 1.1-.32 1.1-.96a.96.96 0 00-.28-.72c-.23-.2-.52-.29-.82-.26H7.9v1.95zM17 40.74h-2.57l-.45 1.3h-1.35l2.35-6.34h1.46l2.34 6.33h-1.35L17 40.74zm-.35-.97l-.94-2.7-.93 2.7h1.87zM25.78 42.03H24.5l-2.86-4.35v4.35h-1.27v-6.4h1.27L24.5 40v-4.38h1.28v6.4zM33.05 40.5c-.26.48-.67.88-1.15 1.13-.56.28-1.17.42-1.8.4h-2.26v-6.4h2.26c.63-.02 1.24.12 1.8.4.48.24.89.63 1.15 1.1a3.74 3.74 0 010 3.37zm-1.46-.16a2.35 2.35 0 000-3.05 2.21 2.21 0 00-1.6-.55h-.88v4.15H30c.58.04 1.15-.16 1.6-.55zM17.79 0s16.45 6.24 16.1 15.26v15.26s-16.44-6.24-16.1-15.26V0zM48.55 26.95c3.1-2.15 6.7-3.48 10.45-3.87V18.3a21.47 21.47 0 00-10.45 8.65z"/><path d="M46.68 28.39A22.38 22.38 0 0159 17.3V3.54s-23.43 8.88-22.93 21.73V47s1.04-.4 2.68-1.14c0-.7 0-1.4.08-2.1a22.6 22.6 0 017.85-15.37z"/><path d="M44.45 36.46c.13-1.5.4-3 .82-4.45a21.04 21.04 0 00-4.96 13.13 68.03 68.03 0 004.5-2.39 22.57 22.57 0 01-.36-6.29zM45.38 36.54c-.15 1.9-.05 3.82.3 5.7 6.4-3.85 13.59-9.79 13.31-16.97v-.63a20.97 20.97 0 00-12.18 5.72 21.5 21.5 0 00-1.43 6.18z"/></symbol><symbol viewBox="0 0 89 45" id="clientVI"><path d="M44.74 20.69a3.08 3.08 0 01-.57-2v-2.88c0-.89.19-1.56.57-2.02.38-.46 1.02-.7 1.95-.7.86 0 1.48.2 1.84.6.4.5.59 1.1.54 1.72v.68h-1.54v-.68c0-.23-.01-.45-.05-.68a.66.66 0 00-.22-.4.86.86 0 00-.56-.15.9.9 0 00-.6.16.78.78 0 00-.25.44c-.04.24-.06.48-.06.72V19c-.02.34.05.68.2.99.08.1.18.19.3.24a.8.8 0 00.4.05c.2.02.4-.04.56-.16.12-.11.2-.26.23-.42.03-.23.05-.47.05-.7v-.72h1.54v.65c.05.65-.14 1.28-.53 1.82-.36.43-.96.64-1.85.64-.9 0-1.57-.23-1.95-.7zM51.19 20.72c-.4-.45-.6-1.1-.6-1.97V15.7c0-.86.2-1.51.6-1.95.39-.44 1.04-.66 1.96-.66.9 0 1.56.22 1.95.66.39.44.59 1.09.59 1.95v3.04c0 .85-.2 1.51-.6 1.96-.4.46-1.04.68-1.94.68-.9 0-1.57-.23-1.96-.67zm2.68-.73c.14-.28.2-.6.18-.9v-3.72c.02-.3-.04-.6-.18-.88a.73.73 0 00-.31-.25.8.8 0 00-.41-.05.82.82 0 00-.41.05.75.75 0 00-.32.25c-.14.27-.2.57-.19.88v3.74c-.02.3.05.62.19.9a1.03 1.03 0 001.45 0v-.02zM57.55 13.19h1.67l1.25 5.6 1.28-5.6h1.62l.17 8.1h-1.2l-.13-5.63-1.24 5.62h-.96l-1.28-5.64-.12 5.64H57.4l.15-8.1zM65.4 13.19H68c1.5 0 2.25.76 2.25 2.3 0 1.46-.8 2.2-2.37 2.2H67v3.6h-1.6v-8.1zm2.22 3.46a1.2 1.2 0 00.89-.26c.18-.27.26-.6.23-.91 0-.25-.02-.5-.08-.74a.6.6 0 00-.12-.22.67.67 0 00-.2-.16c-.22-.1-.47-.15-.72-.13H67v2.42h.62zM72.56 13.19h1.72l1.76 8.1h-1.5l-.34-1.87h-1.54l-.35 1.86h-1.52l1.77-8.1zm1.47 5.29l-.6-3.4-.6 3.4h1.2zM77.47 13.19h1.12l2.15 4.61V13.2h1.33v8.1H81l-2.16-4.83v4.82h-1.37v-8.1zM85.18 18.2l-1.78-5h1.5l1.1 3.2L87 13.2h1.47l-1.76 5v3.08h-1.54V18.2zM47.21 24.82v.42h-1.3v3.3h-.55v-3.3h-1.32v-.42h3.17zM51.31 28.53h-.42a.18.18 0 01-.12-.03.2.2 0 01-.07-.09l-.38-.88h-1.81l-.38.88a.25.25 0 01-.06.1.19.19 0 01-.11.04h-.43l1.6-3.71h.56l1.62 3.7zm-2.65-1.37h1.51l-.64-1.52a2.81 2.81 0 01-.12-.35l-.06.2-.05.16-.64 1.5zM54.08 28.17h.3a1.7 1.7 0 00.48-.11l.22-.1v-.83H54.39a.12.12 0 01-.06-.06l-.01-.04v-.28h1.24v1.42a2.38 2.38 0 01-1.07.38c-.16.02-.31.03-.47.03-.28 0-.55-.05-.8-.14a1.79 1.79 0 01-1.2-1.75 1.7 1.7 0 01.56-1.36c.17-.17.39-.3.63-.39a2.55 2.55 0 011.3-.1 2.1 2.1 0 01.7.24c.1.05.2.12.28.2l-.15.22a.14.14 0 01-.05.05.15.15 0 01-.08.02.2.2 0 01-.1-.03l-.15-.09a1.93 1.93 0 00-1.54-.11 1.3 1.3 0 00-.77.76c-.14.4-.14.83 0 1.23a1.36 1.36 0 00.79.76c.2.07.42.1.64.08zM59.19 28.11h1.75v.42h-2.29v-3.7h.55l-.01 3.28zM62.76 28.53h-.55v-3.7h.55v3.7zM64.8 24.84l.08.07 2.34 2.8v-.14V24.81h.48v3.72h-.28c-.04 0-.08 0-.12-.02a.31.31 0 01-.08-.07l-2.34-2.8v2.89h-.46v-3.7h.38zM71.73 24.82v.41H69.8v1.23h1.57v.39H69.8v1.27h1.94v.4h-2.5v-3.7h2.5zM14.3 1.9l24.34 6.33v22.2L14.3 24.1V1.9zM12.74 0v25.18l27.46 7.16V7.14L12.74 0z"/><path d="M27.46 44.03L0 36.87V11.69l27.46 7.15v25.19z"/><path d="M13.2 1.6l24.02 6.27L27 17.24 2.98 10.98 13.2 1.6zM12.74 0L0 11.69l27.46 7.15L40.2 7.15 12.74 0zM29 42.6l11.2-10.26L29 29.42V42.6z"/></symbol><symbol viewBox="0 0 18 18" id="field-name"><path d="M9 9C10.6575 9 12 7.6575 12 6C12 4.3425 10.6575 3 9 3C7.3425 3 6 4.3425 6 6C6 7.6575 7.3425 9 9 9ZM9 10.5C6.9975 10.5 3 11.505 3 13.5V14.25C3 14.6625 3.3375 15 3.75 15H14.25C14.6625 15 15 14.6625 15 14.25V13.5C15 11.505 11.0025 10.5 9 10.5Z" />
</symbol><symbol viewBox="0 0 18 18" id="field-phone"><path d="M13.996 11.1226L12.1579 10.9127C11.7164 10.8621 11.2822 11.0141 10.9711 11.3252L9.63948 12.6568C7.59147 11.6147 5.91254 9.94301 4.87044 7.88775L6.20925 6.54894C6.52043 6.23775 6.6724 5.80355 6.62174 5.3621L6.41188 3.53842C6.32504 2.8075 5.70991 2.2575 4.97176 2.2575H3.71979C2.90203 2.2575 2.22178 2.93776 2.27243 3.75552C2.65598 9.93577 7.59871 14.8713 13.7717 15.2548C14.5894 15.3055 15.2697 14.6252 15.2697 13.8075V12.5555C15.2769 11.8246 14.7269 11.2095 13.996 11.1226Z" /></symbol><symbol viewBox="0 0 18 18" id="field-mail"><path d="M15 3H3C2.175 3 1.5075 3.675 1.5075 4.5L1.5 13.5C1.5 14.325 2.175 15 3 15H15C15.825 15 16.5 14.325 16.5 13.5V4.5C16.5 3.675 15.825 3 15 3ZM14.7 6.1875L9.3975 9.5025C9.1575 9.6525 8.8425 9.6525 8.6025 9.5025L3.3 6.1875C3.1125 6.0675 3 5.865 3 5.6475C3 5.145 3.5475 4.845 3.975 5.1075L9 8.25L14.025 5.1075C14.4525 4.845 15 5.145 15 5.6475C15 5.865 14.8875 6.0675 14.7 6.1875Z" /></symbol></svg>